<svg id="Layer_1" data-name="Layer 1" xmlns="http://www.w3.org/2000/svg" viewBox="0 0 512 512"><defs><style>.cls-1{fill:#0984e3;}</style></defs><path class="cls-1" d="M495.82,233.85a185.91,185.91,0,0,1-54.77-132.29V99.39l-29-29h-2.14A185.91,185.91,0,0,1,277.6,15.6l-1.54-1.54h-41l-1.54,1.54A185.89,185.89,0,0,1,101.23,70.4H99.08l-29,29v2.17A185.91,185.91,0,0,1,15.29,233.85l-1.53,1.51v41l1.53,1.51A185.91,185.91,0,0,1,70.06,410.2v2.14l29,29h2.15a185.76,185.76,0,0,1,132.28,54.8l.61.61.93.89h41l1.06-1,.48-.48a185.78,185.78,0,0,1,132.29-54.8H412l29-29V410.2a185.91,185.91,0,0,1,54.77-132.29l1.54-1.51v-41ZM487,272.12c-4.48,4.57-8.7,9.34-12.7,14.23-2,2.47-3.9,5-5.76,7.52q-1.39,1.88-2.75,3.84c-.67,1-1.34,2-2,2.91q-1.35,2-2.66,4.1c-.86,1.34-1.69,2.68-2.49,4.06s-1.64,2.75-2.44,4.16-1.56,2.81-2.33,4.22c-1.36,2.54-2.65,5.12-3.89,7.72-.3.62-.6,1.25-.89,1.87q-3.6,7.69-6.52,15.67l0,.1c-.9,2.45-1.73,4.93-2.53,7.42-.11.36-.22.72-.34,1.08-.69,2.21-1.35,4.44-2,6.68-.11.42-.24.84-.35,1.25-.68,2.58-1.34,5.16-1.92,7.77-.35,1.57-.7,3.17-1,4.76-.55,2.69-1,5.41-1.44,8.13-.71,4.67-1.25,9.37-1.67,14.11s-.57,9.5-.64,14.3l-23,23a204.83,204.83,0,0,0-32,2.91,10.11,10.11,0,0,0-1.31.26c-1.47.25-2.91.54-4.35.83l-4.51,1a.14.14,0,0,1-.1,0c-2.78.64-5.57,1.35-8.32,2.11l-4.64,1.35a190.89,190.89,0,0,0-39.86,17.08c-1.41.8-2.78,1.6-4.16,2.43s-2.72,1.63-4.06,2.5-2.75,1.76-4.1,2.65c-2.27,1.54-4.54,3.11-6.75,4.74-2.56,1.85-5,3.77-7.52,5.76-3.67,3-7.26,6.11-10.78,9.37-.06,0-.09,0-.13.1-1.11,1.08-2.23,2.14-3.32,3.23H239.34c-1.09-1.09-2.21-2.15-3.33-3.23,0-.07-.06-.1-.13-.1-3.52-3.26-7.1-6.37-10.78-9.37q-3.69-3-7.52-5.76c-2.21-1.63-4.48-3.2-6.75-4.74-1.34-.89-2.72-1.79-4.09-2.65s-2.69-1.7-4.07-2.5-2.75-1.63-4.16-2.43a190.44,190.44,0,0,0-39.86-17.08L154,438.09c-2.75-.76-5.53-1.47-8.32-2.11a.11.11,0,0,1-.09,0l-4.51-1c-1.44-.29-2.88-.58-4.35-.83a10.46,10.46,0,0,0-1.31-.26,205,205,0,0,0-32-2.91l-23-23c-.06-4.8-.26-9.57-.64-14.3s-1-9.44-1.66-14.11c-.42-2.72-.9-5.44-1.44-8.13-.32-1.59-.67-3.19-1-4.76-.58-2.61-1.23-5.19-1.92-7.77-.11-.41-.23-.83-.35-1.25q-.92-3.36-2-6.68c-.11-.36-.22-.72-.34-1.08q-1.19-3.74-2.52-7.41s0-.08,0-.11q-2.91-8-6.52-15.67c-.29-.62-.58-1.25-.88-1.87-1.25-2.6-2.53-5.18-3.89-7.72-.77-1.41-1.54-2.81-2.34-4.22s-1.6-2.78-2.43-4.16-1.63-2.72-2.5-4.06-1.76-2.75-2.65-4.1c-1.54-2.27-3.11-4.54-4.74-6.75-1.85-2.56-3.77-5.05-5.76-7.52-4-4.89-8.22-9.66-12.7-14.23V239.64a196.46,196.46,0,0,0,18.46-21.75c1.63-2.21,3.2-4.48,4.74-6.75.89-1.35,1.79-2.72,2.65-4.1s1.7-2.68,2.5-4.06,1.63-2.75,2.43-4.16c1.93-3.39,3.73-6.85,5.45-10.34.09-.19.19-.38.28-.56q2.59-5.31,4.85-10.77v0l0,0c1-2.54,2-5.1,3-7.68l.08-.23c.91-2.49,1.76-5,2.57-7.52,0-.18.11-.36.17-.54q1.14-3.62,2.14-7.28c.07-.27.15-.53.23-.8q1.07-4,2-8c.36-1.57.71-3.17,1-4.77.54-2.68,1-5.4,1.44-8.12a200.41,200.41,0,0,0,2.3-28.44l23-22.94c4.8-.07,9.57-.26,14.3-.64,1.86-.16,3.71-.32,5.57-.55,1.31-.16,2.59-.28,3.87-.48s2.62-.35,3.93-.54c1.48-.22,2.92-.48,4.39-.73s3-.55,4.51-.84c3.09-.61,6.16-1.31,9.21-2.07.28-.06.55-.14.82-.21,2.86-.73,5.7-1.51,8.52-2.36l.42-.13a193.92,193.92,0,0,0,43.73-19.41c1.38-.83,2.72-1.67,4.07-2.5s2.75-1.76,4.09-2.65c2.27-1.54,4.54-3.11,6.75-4.74,2.5-1.82,4.93-3.68,7.33-5.63a6.2,6.2,0,0,0,.7-.54q5.23-4.32,10.27-9c.07,0,.1,0,.13-.1,1.12-1.08,2.24-2.14,3.33-3.23h32.44c1.09,1.09,2.21,2.15,3.32,3.23,0,.07.07.1.13.1q5,4.65,10.27,9a6.32,6.32,0,0,0,.71.54c2.4,2,4.83,3.81,7.32,5.63,2.21,1.63,4.48,3.2,6.75,4.74,1.35.89,2.72,1.79,4.1,2.65s2.69,1.67,4.06,2.5q3.22,1.9,6.52,3.71c2,1.1,4,2.15,6.06,3.18l.21.1a195.24,195.24,0,0,0,59,18.79c1.25.19,2.5.35,3.78.51s2.43.32,3.64.45c1.92.23,3.84.42,5.79.58,4.74.38,9.51.57,14.3.64l23,22.94A200.42,200.42,0,0,0,433,132.15c.41,2.72.89,5.44,1.44,8.12.32,1.6.67,3.2,1,4.77q.9,4,2,8l.27,1q1,3.54,2.07,7c.09.3.19.59.28.88q1.14,3.58,2.43,7.12c.07.2.15.4.22.61.92,2.52,1.89,5,2.92,7.49l0,0v0q2.26,5.46,4.86,10.77l.27.55c1.72,3.5,3.52,7,5.45,10.35.8,1.41,1.6,2.78,2.44,4.16s1.63,2.72,2.49,4.06,1.76,2.75,2.66,4.1c1.53,2.27,3.1,4.54,4.73,6.75,1.86,2.56,3.78,5.05,5.76,7.52,4,4.89,8.22,9.66,12.7,14.23Z"/><path class="cls-1" d="M497.39,235.32l-1.5-1.53a185.82,185.82,0,0,1-54.78-132.26V99.39L413.57,71.84,412,70.34h-2.14a185.71,185.71,0,0,1-132.26-54.8L276.1,14H237.16L235,14l-1.51,1.51a185.72,185.72,0,0,1-132.29,54.8H99.05L70,99.39v2.17A185.91,185.91,0,0,1,15.23,233.82l-1.54,1.5v38.94l0,2.17,1.5,1.54A185.74,185.74,0,0,1,70,410.23v2.14l27.55,27.55,1.53,1.5h2.15a185.79,185.79,0,0,1,132.25,54.77l.64.58,1,.83,19.45.06,19.42.07h1.89l.06-.07,1.22-1,.51-.45a185.83,185.83,0,0,1,132.29-54.77h2.15l27.51-27.51,1.53-1.57V410.2a185.76,185.76,0,0,1,54.81-132.26l1.5-1.54V237.47ZM235.88,484c-3.45-3.26-7.07-6.4-10.78-9.37-2.46-2-5-3.94-7.52-5.76-2.21-1.63-4.48-3.2-6.75-4.74-1.34-.89-2.72-1.79-4.09-2.65s-2.69-1.7-4.07-2.5-2.75-1.63-4.16-2.43A194.68,194.68,0,0,0,176.82,446c-5.91-2.46-12-4.64-18.17-6.52L154,438.09c-2.75-.76-5.53-1.47-8.32-2.11a.11.11,0,0,1-.09,0l-4.51-1c-.39-.1-.77-.19-1.15-.26-1.06-.22-2.15-.41-3.2-.57a10.46,10.46,0,0,0-1.31-.26,195.44,195.44,0,0,0-32-3L80.49,408c-.06-4.77-.28-9.5-.7-14.27s-.93-9.44-1.66-14.11c-.42-2.72-.9-5.44-1.44-8.13-.32-1.59-.67-3.19-1-4.76A196.23,196.23,0,0,0,65.49,334.6c-2.46-6-5.22-11.78-8.25-17.44-.77-1.41-1.54-2.81-2.34-4.22s-1.6-2.78-2.43-4.16-1.63-2.72-2.5-4.06-1.76-2.75-2.65-4.1c-1.54-2.27-3.11-4.54-4.74-6.75-1.85-2.56-3.77-5.05-5.76-7.52-4-5-8.19-9.72-12.6-14.27v-32.4a198.56,198.56,0,0,0,18.36-21.79c1.63-2.21,3.2-4.48,4.74-6.75.89-1.35,1.79-2.72,2.65-4.1s1.7-2.68,2.5-4.06,1.63-2.75,2.43-4.16a196.62,196.62,0,0,0,10.59-21.69A196.2,196.2,0,0,0,75.66,145c.36-1.57.71-3.17,1-4.77.54-2.68,1-5.4,1.44-8.12a195.83,195.83,0,0,0,2.36-28.41l22.94-22.91c4.77-.06,9.5-.29,14.27-.7,1.86-.16,3.71-.32,5.57-.55,1.31-.16,2.59-.28,3.87-.48s2.62-.35,3.93-.54c1.48-.22,2.92-.48,4.39-.73s3-.55,4.51-.84A196,196,0,0,0,176.82,65.8a206.82,206.82,0,0,0,25.85-13c1.38-.83,2.72-1.67,4.07-2.5s2.75-1.76,4.09-2.65c2.27-1.54,4.54-3.11,6.75-4.74,2.5-1.79,4.93-3.65,7.33-5.63a6.2,6.2,0,0,0,.7-.54q5.32-4.28,10.27-9c.07,0,.1,0,.13-.1,1.12-1,2.24-2.08,3.33-3.16h32.44c1.09,1.08,2.21,2.14,3.32,3.16,0,.07.07.1.13.1q4.95,4.7,10.27,9a6.32,6.32,0,0,0,.71.54c2.4,2,4.83,3.84,7.32,5.63,2.21,1.63,4.48,3.2,6.75,4.74,1.35.89,2.72,1.79,4.1,2.65s2.69,1.67,4.06,2.5a208.2,208.2,0,0,0,25.85,13A195.49,195.49,0,0,0,371.18,77c3,.61,6,1.12,9,1.6,1.25.19,2.5.35,3.78.51s2.43.32,3.64.45c1.92.23,3.84.42,5.79.58,4.74.41,9.51.64,14.27.7l22.94,22.91A197.61,197.61,0,0,0,433,132.15c.41,2.72.89,5.44,1.44,8.12.32,1.6.67,3.2,1,4.77a196,196,0,0,0,10.18,32.09,198.35,198.35,0,0,0,10.58,21.69c.8,1.41,1.6,2.78,2.44,4.16s1.63,2.72,2.49,4.06,1.76,2.75,2.66,4.1c1.53,2.27,3.1,4.54,4.73,6.75,1.86,2.56,3.78,5.05,5.76,7.52q6,7.44,12.64,14.27v32.4q-6.68,6.82-12.64,14.27c-2,2.47-3.9,5-5.76,7.52q-1.39,1.88-2.75,3.84c-.67,1-1.34,2-2,2.91q-1.35,2-2.66,4.1c-.86,1.34-1.69,2.68-2.49,4.06s-1.64,2.75-2.44,4.16-1.56,2.81-2.33,4.22a191.5,191.5,0,0,0-8.25,17.44,197.23,197.23,0,0,0-10.18,32.12c-.35,1.57-.7,3.17-1,4.76-.55,2.69-1,5.41-1.44,8.13-.74,4.67-1.31,9.37-1.67,14.11s-.64,9.5-.7,14.27l-22.94,22.94a195.43,195.43,0,0,0-32,3,10.11,10.11,0,0,0-1.31.26c-1.06.16-2.15.35-3.2.57-.39.07-.77.16-1.15.26l-4.51,1a.14.14,0,0,1-.1,0c-2.78.64-5.57,1.35-8.32,2.11l-4.64,1.35c-6.17,1.88-12.25,4.06-18.17,6.52a196.4,196.4,0,0,0-21.69,10.56c-1.41.8-2.78,1.6-4.16,2.43s-2.72,1.63-4.06,2.5-2.75,1.76-4.1,2.65c-2.27,1.54-4.54,3.11-6.75,4.74-2.56,1.82-5,3.77-7.52,5.76-3.71,3-7.32,6.11-10.78,9.37-.06,0-.09,0-.13.1-1.11,1-2.23,2.11-3.32,3.16H239.34c-1.09-1.05-2.21-2.14-3.33-3.16C236,484,236,484,235.88,484Z"/><path class="cls-1" d="M175.61,302.07H285.3V338H179.66a3.77,3.77,0,0,1-2.86-1.18,3.84,3.84,0,0,1-1.19-2.86Z"/><path class="cls-1" d="M421.21,115.22l-24-23.57A176,176,0,0,1,273.83,41.1H237.26a176,176,0,0,1-123.4,50.55l-24,23.57A175.83,175.83,0,0,1,37.43,240.57v30.62A175.78,175.78,0,0,1,89.9,396.54l24,23.54a175.83,175.83,0,0,1,123.4,50.58h36.57a175.9,175.9,0,0,1,123.42-50.58l24-23.54a175.9,175.9,0,0,1,52.47-125.35V240.57A176,176,0,0,1,421.21,115.22ZM329.27,381.91H177.94a44.24,44.24,0,0,1-23.29-6.36,47.29,47.29,0,0,1-16.76-17,44.28,44.28,0,0,1-6.21-23V262.49H285.31v-27.2a3.78,3.78,0,0,0-1.15-2.81,3.92,3.92,0,0,0-2.88-1.19H131.68V187.37H283a45,45,0,0,1,23.32,6.2,46.3,46.3,0,0,1,16.76,16.77,45.22,45.22,0,0,1,6.21,23.29Zm21.88-195.6A28.25,28.25,0,1,1,379.43,158,28.26,28.26,0,0,1,351.15,186.31Z"/></svg>