<svg id="Layer_1" data-name="Layer 1" xmlns="http://www.w3.org/2000/svg" viewBox="0 0 512 512"><defs><style>.cls-1{fill:#0984e3;}</style></defs><path class="cls-1" d="M227.2,73c7.91,2.52,13.77,7.38,16.94,15.14a14.91,14.91,0,0,1,1.2,5.39c.08,21.71.06,43.41,0,65.12,0,.85-.12,1.7-.23,3.21-1.22-1.18-2.07-2-2.9-2.8a26.49,26.49,0,0,0-21.39-7.91c-1.93.14-4.78-.05-4.62,3.07.15,3.27,2.91,2.42,4.89,2.41,11.77-.09,19.61,5.19,23.41,16a15.73,15.73,0,0,1,.81,5.1c0,73.35.24,146.7-.1,220.05-.11,22-9.66,39.86-28.73,51.53-20.56,12.58-46.55,8.49-62.69-9.43A90,90,0,0,1,145,427.47a8.78,8.78,0,0,0-5.25-4.26c-21.72-6.5-35.47-25.82-34.63-48.51a57.79,57.79,0,0,1,.8-6.67c.65-4.2.7-4.21-3.1-6.48A47.71,47.71,0,0,1,81.4,335.5a48.23,48.23,0,0,1,2.7-38.79c.6-1.18,1.35-2.28,2.3-3.87,1.4,1.36,2.43,2.37,3.48,3.37,9.45,9,20.62,13.76,33.7,14,.62,0,1.24,0,1.87,0,1.72,0,3-.68,2.9-2.61-.06-1.69-1.18-2.32-2.75-2.43-2.11-.14-4.23-.28-6.32-.55a46.59,46.59,0,0,1-39.65-37.52c-2.91-15.88.48-30.24,11.34-42.45a6.87,6.87,0,0,0,1.68-7.09c-4.2-16.32-1.14-31.3,9.68-44.2,21.7-25.88,61.27-20.52,75.67,10a45.48,45.48,0,0,1,4.59,17.22c.06,1.25.32,2.48.41,3.72.14,1.73.92,3,2.74,2.85s2.38-1.47,2.38-3.19a50.93,50.93,0,0,0-5-22.07c-7.81-16.45-20.64-26.53-38.62-29.84a37.17,37.17,0,0,0-5.59-.42,3.05,3.05,0,0,1-3.27-2.42c-6-20.09,4.41-42.29,23.83-47.45,13-3.45,27.2,2.62,34.67,14.77.59,1,.91,2.24,1.74,2.83a4.76,4.76,0,0,0,3.49.94c1.49-.46,1.72-2,1-3.45a45.08,45.08,0,0,0-2.59-4.54c-6.59-9.58-15.73-15-27.21-16.67a4.09,4.09,0,0,1-1.92-.69C182.32,84.81,197,76.86,213.73,73ZM169.81,246.24A33.09,33.09,0,0,1,161,264.16c-6.22,6.57-14.11,9.58-23,10.38-2.07.19-3.83.68-3.53,3.25.24,2.13,1.84,2.42,3.61,2.24,20.09-2,32.14-13.54,36.48-30.72.73-2.92,2.05-3.95,4.94-4.39a49.65,49.65,0,0,0,29.11-15.58c1.26-1.34,2.91-2.87,1-4.77-2.12-2.08-3.56-.22-5,1.2-.35.36-.69.72-1,1.07a45.88,45.88,0,0,1-33.34,13.69A45.17,45.17,0,0,1,126,205.07c-.68-3-.75-6.19-1.45-9.21a3.23,3.23,0,0,0-2.47-2,3.57,3.57,0,0,0-2.31,2.26,10.54,10.54,0,0,0,0,4.08,50.29,50.29,0,0,0,38.48,44C161.8,245.11,165.51,245.52,169.81,246.24Zm-1.48,106.88c-4-.32-7.29-.62-10.63-.84-1.68-.11-3,.44-3,2.43s1.21,2.39,2.91,2.64a124.57,124.57,0,0,1,14.3,2.48c15.12,4.08,26.53,12.6,31.08,28.25,1.3,4.47,1.45,9.3,2,14,.23,1.92.73,3.71,2.88,3.64s2.78-1.88,2.66-3.81c-.14-2.23-.38-4.46-.61-6.69a43.23,43.23,0,0,0-12.21-26.63,49.75,49.75,0,0,0-20.2-12.39c-2.63-.88-4-2.1-3.57-5,.32-2,.42-4,.69-5.93,2.53-18.24,11.63-31.91,28.5-39.72,5.12-2.38,10.81-3.57,16.3-5.12,1.9-.53,3.79-.85,3.73-3.29,0-1.74-1.85-2.53-4.43-2.06-1.83.34-3.67.69-5.46,1.19C189,303,173.67,318,169.49,343.29,169,346.44,168.73,349.64,168.33,353.12Z"/><path class="cls-1" d="M282.6,73c15.41,3.53,29.13,10.74,42.16,19.44q1.25.84,2.43,1.74c.18.14.23.42.55,1-1.95.4-3.82.74-5.66,1.16-11.37,2.55-19.81,9-25.48,19.15-.31.54-.84,1.15-.77,1.67.16,1.12.42,3,1,3.12a5,5,0,0,0,3.5-.88c.75-.48,1-1.67,1.54-2.52,6.21-10.13,15.38-15.76,27.11-16.09,11.13-.3,19.89,5.12,26.24,14.12,7,10,8.42,21.08,5.84,32.85-.59,2.69-1.87,3.85-4.81,4-23.56,1-43.36,19.76-47.29,43.64-.4,2.45-.57,4.94-.75,7.43-.14,1.89-.24,4.11,2.3,4.36s2.54-2,2.9-3.88c1.09-5.6,1.65-11.42,3.61-16.71,6.52-17.59,23.51-29.68,41.51-29.84,24.43-.21,42.82,18.38,46.27,40.34a48.19,48.19,0,0,1-1.17,20.36c-.82,3-.17,5.07,1.88,7.4a48.74,48.74,0,0,1-11.23,73.93c-6.64,4.07-14,5.87-21.66,6.31-.75,0-1.5.05-2.25.05a2.39,2.39,0,0,0-2.66,2.5,2.31,2.31,0,0,0,2.66,2.48c4.21-.31,8.5-.35,12.6-1.21a47.48,47.48,0,0,0,23.91-13.18c.86-.86,1.76-1.66,2.9-2.73a39,39,0,0,1,6.82,15.87,48.91,48.91,0,0,1-23,52.6c-3.86,2.33-3.86,2.33-3.14,6.81,4.08,25.34-9.88,47.72-34.51,55.1-2.47.74-3.61,2.32-4.72,4.34-7.36,13.39-18,23.11-32.92,27-21.38,5.53-39.12-1.41-53.14-17.91A59.19,59.19,0,0,1,251,397.53q-.09-109.83,0-219.67c0-10.56,9.73-20.61,20.4-21.18,1.62-.09,3.25,0,4.87,0,1.82,0,3.7,0,3.91-2.38s-1.91-3-3.53-2.95a60.44,60.44,0,0,0-11.41,1.1c-5.53,1.21-9.71,4.84-13.81,9.5a29.11,29.11,0,0,1-.42-3.29q0-32.56,0-65.12c0-7.29,6.95-16.15,14.76-19.14,1.15-.44,2.28-.92,3.42-1.38Zm43.84,173.68c.71-.56.8-.7.91-.71.86-.11,1.72-.2,2.59-.29,15.17-1.5,27.61-8,36.85-20.26A49,49,0,0,0,376.71,197c.06-1.68-.47-3-2.36-3.21s-2.62,1.11-2.83,2.74c-.28,2.22-.29,4.49-.75,6.67-3.77,17.7-14,30-31.4,35.23s-33.22,1.16-46.58-11.47a19,19,0,0,0-3.07-2.7,2.5,2.5,0,0,0-2.33.16,3.32,3.32,0,0,0-1.27,2.42,4.81,4.81,0,0,0,1.52,2.48,49.3,49.3,0,0,0,29.06,15.62c3.12.48,4.32,1.72,5.1,4.68C325.61,264,334.34,274,349,278.22a52.62,52.62,0,0,0,9.9,1.73,3.81,3.81,0,0,0,2.87-2.1c.65-1.64-.46-2.83-2.2-3.18-.73-.14-1.49-.08-2.23-.18-6.78-.9-13.12-2.93-18.57-7.24C332,261.92,328.21,254.88,326.44,246.68ZM328,353.12c-.22-1.91-.46-3.59-.6-5.27-1-11-4.19-21.27-10.93-30.17-9.51-12.55-22.46-19.41-37.69-22.37-3.61-.7-5.53-.15-5.53,1.78,0,2.9,2.31,3,4.46,3.35,13.42,2.51,25,8.3,33.66,19.2,6.56,8.27,9.54,17.92,10.81,28.25.8,6.55.93,6.52-5.17,8.92-14.67,5.76-25.19,15.53-29.2,31.18-1.16,4.54-1.4,9.33-1.92,14-.22,1.93.6,3.67,2.76,3.67,1.92,0,2.64-1.6,2.71-3.41a18.54,18.54,0,0,1,0-2.24c.61-4.05.81-8.24,2-12.12,4.74-15.58,16.13-24.1,31.28-28.13,4.66-1.24,9.55-1.62,14.3-2.55a3.92,3.92,0,0,0,2.5-1.73,2.82,2.82,0,0,0-.67-2.59,4.24,4.24,0,0,0-2.8-.61C334.78,352.49,331.59,352.82,328,353.12Z"/></svg>