<svg id="Layer_1" data-name="Layer 1" xmlns="http://www.w3.org/2000/svg" viewBox="0 0 512 512"><defs><style>.cls-1{fill:#0984e3;}</style></defs><path class="cls-1" d="M26,94.32c3-7.27,4.95-15.25,9.23-21.68C45.44,57.27,60.48,49.46,79,49.36c35.53-.2,71.07-.32,106.6,0,29.58.29,51.46,21.77,53.11,51.29.15,2.69.24,5.39.24,8.09q0,91.75,0,183.51c0,15.19-1.28,30.22-5.76,44.83-10.22,33.3-29.32,60.1-58.58,79.27-18.83,12.34-39.51,20.13-61.92,22.41a266.16,266.16,0,0,1-34.13.9c-10.11-.27-17.18-8-17.43-18.22q-.42-17.31,0-34.63C61.37,376,68.94,369,79.78,368.42c11.78-.58,23.85-.2,35.26-2.67,29-6.26,51.39-34.43,52.1-63.95.17-6.84.38-13.91-1.07-20.52-2.38-10.86-12.56-18.4-23.72-18.51-21-.19-42,.05-63-.14-23.93-.22-44-14.78-51.08-36.85-.87-2.7-1.54-5.45-2.3-8.18Z"/><path class="cls-1" d="M486.92,203.06q0,46.8,0,93.58c0,31.46-9.35,59.86-27.85,85.21-20.05,27.49-47,44.81-79.71,53.55-17.28,4.62-35,5-52.66,4.33-10.33-.37-17.33-8.3-17.41-18.67-.08-11.4-.1-22.8,0-34.2.09-10.58,7.54-17.86,18.08-18.42,12.08-.64,24.43-.3,36.16-2.77,26-5.46,47.91-30.72,51-57.17a146.69,146.69,0,0,0,.79-21.07,25.45,25.45,0,0,0-24.94-24.65c-20.85-.24-41.7.08-62.54-.16-23.07-.27-39.89-11.07-49.44-31.92a53.91,53.91,0,0,1-4.39-21.32c-.38-36.29-.7-72.59.13-108.87.66-28.75,22.61-50.45,51.32-51q54.87-1,109.76,0c29.75.59,51.53,23.9,51.62,53.65C487,136.48,486.92,169.77,486.92,203.06Z"/></svg>